<svg xmlns="http://www.w3.org/2000/svg" xmlns:xlink="http://www.w3.org/1999/xlink" width="500" zoomAndPan="magnify" viewBox="0 0 375 374.999991" height="500" preserveAspectRatio="xMidYMid meet" version="1.0"><defs><g/><clipPath id="db9256970d"><path d="M 141.9375 73.804688 L 233.4375 73.804688 L 233.4375 223.804688 L 141.9375 223.804688 Z M 141.9375 73.804688 " clip-rule="nonzero"/></clipPath></defs><g clip-path="url(#db9256970d)"><path fill="#80c9f4" d="M 141.9375 112.226562 L 208.363281 73.875 L 208.363281 82.222656 L 148.648438 116.699219 L 148.648438 203.394531 L 141.9375 207.273438 Z M 166.632812 128.691406 L 233.058594 90.339844 L 233.058594 115.316406 L 188.265625 141.175781 L 188.265625 151.238281 L 233.058594 125.375 L 233.058594 150.351562 L 188.265625 176.210938 L 188.265625 186.273438 L 233.058594 160.410156 L 233.058594 185.382812 L 166.632812 223.734375 Z M 166.632812 128.691406 " fill-opacity="1" fill-rule="evenodd"/></g><g fill="#000000" fill-opacity="1"><g transform="translate(83.004667, 267.974997)"><g><path d="M 2.25 0 L 23.078125 0 L 23.078125 -5.59375 L 8.96875 -5.59375 L 8.96875 -12.390625 L 21.046875 -12.390625 L 21.046875 -17.328125 L 8.96875 -17.328125 L 8.96875 -23.484375 L 22.671875 -23.484375 L 22.671875 -29.03125 L 2.25 -29.03125 Z M 2.25 0 "/></g></g></g><g fill="#000000" fill-opacity="1"><g transform="translate(110.288072, 267.974997)"><g><path d="M 2.25 0 L 9.171875 0 L 9.171875 -9.75 L 15.859375 -9.75 C 22.671875 -9.75 27.203125 -13.625 27.203125 -19.40625 C 27.203125 -25.15625 22.71875 -29.03125 15.953125 -29.03125 L 2.25 -29.03125 Z M 9.171875 -14.921875 L 9.171875 -23.890625 L 14.84375 -23.890625 C 18.140625 -23.890625 20.234375 -22.109375 20.234375 -19.40625 C 20.234375 -16.71875 18.109375 -14.921875 14.84375 -14.921875 Z M 9.171875 -14.921875 "/></g></g></g><g fill="#000000" fill-opacity="1"><g transform="translate(141.608815, 267.974997)"><g><path d="M 2.25 0 L 9.21875 0 L 9.21875 -29.03125 L 2.25 -29.03125 Z M 2.25 0 "/></g></g></g><g fill="#000000" fill-opacity="1"><g transform="translate(156.372396, 267.974997)"><g><path d="M 2.25 0 L 17.40625 0 C 24.0625 0 27.8125 -2.9375 27.8125 -8.078125 C 27.8125 -11.75 25.8125 -14.15625 22.265625 -14.84375 L 22.265625 -14.890625 C 25.40625 -15.703125 27.15625 -17.90625 27.15625 -21.125 C 27.15625 -26.1875 23.53125 -29.03125 17.046875 -29.03125 L 2.25 -29.03125 Z M 9.21875 -17 L 9.21875 -23.890625 L 15.953125 -23.890625 C 18.671875 -23.890625 20.234375 -22.640625 20.234375 -20.515625 C 20.234375 -18.265625 18.671875 -17 15.953125 -17 Z M 9.21875 -5.171875 L 9.21875 -12.5625 L 16.15625 -12.5625 C 19.171875 -12.5625 20.875 -11.21875 20.875 -8.765625 C 20.875 -6.484375 19.171875 -5.171875 16.15625 -5.171875 Z M 9.21875 -5.171875 "/></g></g></g><g fill="#000000" fill-opacity="1"><g transform="translate(188.508771, 267.974997)"><g><path d="M 17.296875 1.015625 C 27.03125 1.015625 33.40625 -5.140625 33.40625 -14.515625 C 33.40625 -23.890625 27.03125 -30.0625 17.296875 -30.0625 C 7.578125 -30.0625 1.21875 -23.890625 1.21875 -14.515625 C 1.21875 -5.140625 7.578125 1.015625 17.296875 1.015625 Z M 17.296875 -4.96875 C 11.78125 -4.96875 8.203125 -8.765625 8.203125 -14.515625 C 8.203125 -20.3125 11.78125 -24.109375 17.296875 -24.109375 C 22.84375 -24.109375 26.421875 -20.3125 26.421875 -14.515625 C 26.421875 -8.765625 22.84375 -4.96875 17.296875 -4.96875 Z M 17.296875 -4.96875 "/></g></g></g><g fill="#000000" fill-opacity="1"><g transform="translate(226.436069, 267.974997)"><g><path d="M 17.296875 1.015625 C 27.03125 1.015625 33.40625 -5.140625 33.40625 -14.515625 C 33.40625 -23.890625 27.03125 -30.0625 17.296875 -30.0625 C 7.578125 -30.0625 1.21875 -23.890625 1.21875 -14.515625 C 1.21875 -5.140625 7.578125 1.015625 17.296875 1.015625 Z M 17.296875 -4.96875 C 11.78125 -4.96875 8.203125 -8.765625 8.203125 -14.515625 C 8.203125 -20.3125 11.78125 -24.109375 17.296875 -24.109375 C 22.84375 -24.109375 26.421875 -20.3125 26.421875 -14.515625 C 26.421875 -8.765625 22.84375 -4.96875 17.296875 -4.96875 Z M 17.296875 -4.96875 "/></g></g></g><g fill="#000000" fill-opacity="1"><g transform="translate(264.363366, 267.974997)"><g><path d="M 2.25 0 L 9.21875 0 L 9.21875 -9.421875 L 12.28125 -12.6875 L 19 0 L 27.40625 0 L 17 -17.859375 L 27.03125 -29.03125 L 18.5625 -29.03125 L 9.296875 -17.9375 L 9.21875 -17.984375 L 9.21875 -29.03125 L 2.25 -29.03125 Z M 2.25 0 "/></g></g></g></svg>